<svg xmlns="http://www.w3.org/2000/svg" viewBox="0 0 32 32" fill="none">
  <rect width="32" height="32" rx="6" fill="#0a1628"/>
  <circle cx="16" cy="16" r="11" fill="#f0f4f8"/>
  <path fill="#0a1628" d="M16 6.5 19.2 11.8 25.1 12.5 20.8 16.5 21.9 22.3 16 19.8 10.1 22.3 11.2 16.5 6.9 12.5 12.8 11.8Z"/>
  <path fill="#00a651" d="M16 6.5v6.3l5.1 2.5-2-5.5 3.9-.5L16 6.5Z"/>
  <path fill="#00a651" d="M21.1 12.5 16 15l5.9.8-1.1 5.8 4.3-3.9-.1-5.2Z"/>
  <path fill="#ffd700" stroke="#0a1628" stroke-width="0.4" d="M16 6.5 12.8 11.8 6.9 12.5 11.2 16.5 10.1 22.3 16 19.8"/>
</svg>
